<svg width="150" height="60" viewBox="0 0 150 60" fill="none" xmlns="http://www.w3.org/2000/svg">
<g clip-path="url(#clip0_4_16)">
<path d="M30.3516 8.67966C30.1697 8.72752 26.6383 9.76111 22.5039 10.967C17.7953 12.3547 14.7615 13.2926 14.3883 13.484C13.0676 14.1443 12.0435 15.5511 11.7182 17.1494C11.5842 17.8289 11.5746 18.1543 11.6799 20.0205C11.9 24.1453 12.4934 27.3513 13.7471 31.122C15.4314 36.223 18.025 40.8359 21.4894 44.9033C23.4801 47.2289 27.8441 51.2006 29.1266 51.8513C30.61 52.5978 32.3518 52.6074 33.8543 51.8705C34.1318 51.7365 34.9166 51.1718 35.5865 50.6263C40.7545 46.4058 44.3625 41.9461 47.0996 36.3857C49.674 31.1603 51.0139 25.9636 51.3297 19.9726C51.4445 17.6758 51.368 16.9484 50.8799 15.8861C50.3631 14.7472 49.3103 13.7328 48.1906 13.2734C47.9322 13.1681 44.3434 12.0867 40.209 10.8713C32.8111 8.68923 32.6771 8.66052 31.6914 8.62224C31.1363 8.6031 30.5334 8.63181 30.3516 8.67966ZM39.4146 13.8381C43.5299 15.0439 47.0135 16.0967 47.1666 16.1828C47.6738 16.4412 48.1236 17.0345 48.2576 17.6183C48.3916 18.2308 48.2672 20.9775 48.0088 22.9873C47.1092 29.9353 44.3146 36.5006 39.8644 42.0801C38.0748 44.3195 33.7682 48.4156 32.4379 49.1429C31.9689 49.3918 31.1937 49.4301 30.6769 49.2099C29.6721 48.7888 25.0592 44.4726 23.3078 42.3193C18.8002 36.759 15.91 30.0502 14.9912 23.0351C14.7424 21.1306 14.6084 18.2213 14.7424 17.6279C14.8764 17.0441 15.4219 16.3455 15.9004 16.1445C16.0631 16.0775 19.518 15.0439 23.5853 13.8476C28.6672 12.3451 31.1268 11.656 31.4617 11.656C31.8254 11.6465 33.7586 12.1824 39.4146 13.8381Z" fill="#3FA836"/>
<g clip-path="url(#clip1_4_16)">
<path d="M22.1802 43.7632C22.1479 43.7753 21.0264 44.8726 19.6951 46.2039C17.44 48.455 17.2625 48.6204 17.1818 48.58C17.0567 48.5115 16.6493 48.5195 16.4718 48.5921C16.3911 48.6285 16.1732 48.8019 15.9917 48.9794C15.8101 49.1569 15.6528 49.3022 15.6407 49.3022C15.6286 49.3022 15.5762 49.1811 15.5237 49.0359C15.4672 48.8907 15.3906 48.7374 15.3502 48.693C15.2615 48.6002 15.0517 48.5921 14.9549 48.6809C14.8621 48.7616 12.9015 53.0136 12.9015 53.1306C12.9015 53.2395 13.0709 53.4171 13.1798 53.4171C13.3009 53.4171 17.5529 51.4443 17.6336 51.3515C17.7103 51.2628 17.7224 51.1095 17.6618 51.0006C17.6417 50.9602 17.5206 50.8836 17.3916 50.8352C16.968 50.6657 16.976 50.7061 17.3189 50.347C17.4884 50.1695 17.6618 49.9476 17.7062 49.8549C17.7909 49.6693 17.8071 49.3304 17.7425 49.1569C17.6982 49.048 17.7506 48.9915 20.1227 46.6194C22.4222 44.3199 22.5432 44.1908 22.5432 44.0537C22.5432 43.856 22.3536 43.7027 22.1802 43.7632ZM17.085 49.2296C17.1495 49.2901 17.1777 49.3627 17.1777 49.4595C17.1777 49.5886 17.1334 49.6491 16.7703 50.0122L16.3628 50.4237L16.1974 50.3591C16.0683 50.3067 16.0199 50.2583 15.9554 50.113L15.8787 49.9355L16.2781 49.5362C16.6493 49.1731 16.6936 49.1408 16.8348 49.1408C16.9397 49.1408 17.0204 49.169 17.085 49.2296ZM15.2857 50.0808L15.435 50.4519L15.2978 50.6052C15.1042 50.815 15.1163 50.9925 15.3301 51.1014C15.4713 51.174 15.5842 51.1458 15.7456 50.9925L15.8707 50.8755L16.2418 51.0248C16.4476 51.1055 16.6009 51.1861 16.5847 51.2023C16.5645 51.2184 15.9554 51.5089 15.2212 51.8437C14.491 52.1826 13.8737 52.465 13.8576 52.4771C13.8173 52.5013 13.8374 52.4529 14.5152 50.9804C14.8379 50.2784 15.1082 49.7056 15.1203 49.7056C15.1324 49.7056 15.205 49.875 15.2857 50.0808Z" fill="black"/>
</g>
<path d="M37.7285 36.1535C37.9173 36.1865 38.0841 36.0654 38.0839 35.8934C38.0821 35.7958 38.0352 35.7195 37.8024 35.4356C37.4826 35.0457 37.3838 35.0015 37.1935 35.1575C37.0126 35.3059 37.0385 35.4203 37.3279 35.7986C37.5636 36.1114 37.5903 36.1313 37.7285 36.1535Z" fill="black"/>
<path d="M35.7149 35.4859C35.8488 35.475 35.8802 35.4531 36.0788 35.2137C36.4356 34.7753 36.4638 34.4944 36.1529 34.3986C35.993 34.3498 35.811 34.486 35.5741 34.8377C35.4015 35.0964 35.3895 35.1327 35.4173 35.2642C35.4369 35.3391 35.4783 35.4254 35.5107 35.4495C35.543 35.4736 35.6375 35.4886 35.7149 35.4859Z" fill="black"/>
<path d="M34.4165 33.8071C34.5073 33.9062 34.5438 33.9175 34.8547 33.9272C35.4199 33.9398 35.6589 33.7896 35.5437 33.4853C35.484 33.3292 35.2648 33.2691 34.8418 33.298C34.5315 33.3206 34.4955 33.3334 34.4088 33.4361C34.3617 33.4976 34.319 33.5832 34.3199 33.6235C34.3207 33.6639 34.3668 33.7476 34.4165 33.8071Z" fill="black"/>
<path d="M38.7612 33.5354C38.6281 33.6403 38.616 33.8541 38.737 33.9752C38.8096 34.0478 38.8701 34.0558 39.2574 34.0558C39.6245 34.0558 39.7133 34.0437 39.7899 33.9832C39.9231 33.8743 39.911 33.6686 39.7698 33.5435C39.6729 33.4588 39.6205 33.4507 39.2655 33.4507C38.9266 33.4507 38.854 33.4628 38.7612 33.5354Z" fill="black"/>
<path d="M37.08 32.242C36.7851 33.2346 36.759 33.3637 36.815 33.4664C36.8981 33.6187 37.0623 33.667 37.2111 33.5859C37.3102 33.5318 37.3614 33.3982 37.6483 32.4329C37.9368 31.4622 37.9629 31.3331 37.9049 31.2269C37.8334 31.0958 37.6106 31.0243 37.4831 31.0939C37.4336 31.1209 37.3025 31.4957 37.08 32.242Z" fill="black"/>
<path d="M37.7067 34.3091C37.6746 34.4127 37.6792 34.4757 37.7343 34.5603C37.8018 34.6657 38.1509 34.7629 41.8232 35.6929L45.833 36.7083L47.3312 37.7174C48.1522 38.2755 48.8965 38.7759 48.98 38.8294C49.163 38.9552 49.3394 38.944 49.4471 38.8094C49.5214 38.7134 49.5315 38.5806 49.4675 38.4732C49.4468 38.4385 49.1065 38.1905 48.7123 37.9229C47.4329 37.0605 47.4168 37.1123 48.8437 37.4736C49.5295 37.6473 50.0998 37.8006 50.1101 37.8179C50.1205 37.8352 50.1925 38.2713 50.267 38.7904C50.3429 39.304 50.4218 39.7595 50.4466 39.8011C50.5065 39.9016 50.7422 39.9584 50.8462 39.8964C50.8947 39.8675 50.9475 39.7985 50.9684 39.739C50.988 39.6851 50.9525 39.2789 50.8875 38.8387C50.821 38.404 50.7695 38.0261 50.7696 38.0025C50.7697 37.979 51.1997 38.0703 51.7266 38.1978C52.6502 38.4317 52.6848 38.4346 52.7833 38.3477C52.8395 38.3001 52.8923 38.2076 52.9008 38.1509C52.941 37.9109 52.8677 37.8747 51.8646 37.6177C51.033 37.4042 50.9217 37.3672 50.9585 37.303C50.9863 37.2629 51.2114 36.955 51.4636 36.6216C51.7137 36.2848 51.9305 35.963 51.9404 35.9008C51.9623 35.7562 51.8852 35.6425 51.7331 35.5923C51.6557 35.5727 50.4958 35.6674 48.7899 35.8386L45.9759 36.1206L41.9406 35.1017C39.0667 34.3768 37.881 34.0972 37.829 34.1282C37.7875 34.1529 37.7339 34.2365 37.7067 34.3091ZM49.4129 36.3878C50.5929 36.2717 50.9514 36.2506 50.9298 36.3011C50.9144 36.3384 50.7567 36.5544 50.5824 36.7898L50.2607 37.2116L49.0032 36.8902C48.3098 36.7117 47.7741 36.5613 47.808 36.5552C47.8399 36.5456 48.5652 36.4703 49.4129 36.3878Z" fill="black"/>
</g>
<path d="M83.5576 27.6328C83.5186 26.5781 83.4795 25.6406 83.4404 24.8203C83.4014 23.9805 83.3721 23.3652 83.3525 22.9746C83.3525 22.5645 83.1963 21.5781 82.8838 20.0156C83.0596 19.7812 83.2256 19.5566 83.3818 19.3418C83.5576 19.127 83.8018 19.0195 84.1143 19.0195C84.7979 19.0195 85.3252 21.9004 85.6963 27.6621C85.8916 31.002 85.9893 34.3418 85.9893 37.6816C85.9893 38.5801 85.3643 39.0293 84.1143 39.0293L83.8799 39C83.8799 37.9844 83.8506 36.6855 83.792 35.1035C83.7334 33.5215 83.6846 32.1445 83.6455 30.9727C83.626 29.8008 83.5967 28.6875 83.5576 27.6328ZM90.5596 27.252C93.2158 26.334 95.5107 25.875 97.4443 25.875C99.9053 25.875 101.546 26.5195 102.366 27.8086C102.737 28.4141 102.923 29.0684 102.923 29.7715C102.923 30.748 102.61 31.7539 101.985 32.7891C101.38 33.8242 100.569 34.7617 99.5537 35.6016C97.1904 37.5352 94.3193 38.7363 90.9404 39.2051C90.9404 39.4199 90.9404 39.7617 90.9404 40.2305C90.96 40.7188 90.9697 41.2559 90.9697 41.8418C90.9893 42.4277 90.999 43.0527 90.999 43.7168C91.0186 44.3809 91.0381 45.0156 91.0576 45.6211C91.1162 47.125 91.1553 47.9844 91.1748 48.1992C91.2139 48.4141 91.2334 48.5898 91.2334 48.7266C91.2334 49.2148 91.0771 49.5762 90.7646 49.8105C90.4521 50.0645 90.042 50.1914 89.5342 50.1914C89.4365 50.1914 89.3389 50.1914 89.2412 50.1914L88.7725 26.6367C88.9482 26.3828 89.1826 26.2656 89.4756 26.2852C89.7686 26.3047 90.0029 26.3828 90.1787 26.5195C90.3545 26.6562 90.4814 26.9004 90.5596 27.252ZM99.1143 28.2773C98.4697 27.9453 97.7764 27.7793 97.0342 27.7793C96.3115 27.7793 95.5889 27.8477 94.8662 27.9844C93.2256 28.2969 92.0146 28.9902 91.2334 30.0645C90.8818 30.5723 90.7061 31.1973 90.7061 31.9395C90.7061 32.0176 90.7061 32.0957 90.7061 32.1738V37.2422C94.7295 36.3438 97.5811 35.0938 99.2607 33.4922C100.237 32.5742 100.726 31.627 100.726 30.6504C100.726 29.6152 100.188 28.8242 99.1143 28.2773ZM118.216 38.5898C118.04 38.9219 117.581 39.0879 116.839 39.0879C116.116 39.0879 115.755 38.8242 115.755 38.2969C115.755 35.9922 115.706 34.4102 115.608 33.5508C115.433 31.6562 115.062 30.6406 114.495 30.5039C113.089 30.2305 111.937 30.0938 111.038 30.0938C110.159 30.0938 109.427 30.3672 108.841 30.9141C108.274 31.4414 107.835 32.3301 107.522 33.5801C107.229 34.8105 107.015 36.5488 106.878 38.7949H104.622C104.661 37.6816 104.681 36.6465 104.681 35.6895C104.681 34.7324 104.661 33.5996 104.622 32.291C104.583 30.9629 104.534 29.5176 104.476 27.9551C104.378 26.1582 104.329 24.6445 104.329 23.4141C104.329 22.1641 104.407 21.0215 104.563 19.9863C104.759 19.6152 105.042 19.4297 105.413 19.4297C105.862 19.4297 106.214 19.5957 106.468 19.9277C106.722 20.2402 106.858 20.5234 106.878 20.7773L106.731 25.6113C106.731 27.4277 106.819 28.7852 106.995 29.6836C108.753 28.5117 110.569 27.9258 112.444 27.9258C113.05 27.9258 113.694 27.9746 114.378 28.0723C115.843 28.834 116.8 29.6445 117.249 30.5039C117.464 30.9531 117.601 31.4316 117.659 31.9395C117.718 32.4473 117.757 33.0234 117.776 33.668C117.894 35.8945 118.04 37.5352 118.216 38.5898ZM130.813 34.1367C129.349 36.4414 127.396 37.8672 124.954 38.4141C124.388 38.5312 123.87 38.5898 123.401 38.5898C122.952 38.5898 122.571 38.5898 122.259 38.5898C121.966 38.5703 121.634 38.5215 121.263 38.4434C120.892 38.3652 120.55 38.2383 120.237 38.0625C119.515 37.6523 119.153 37.0762 119.153 36.334C119.075 35.9824 119.036 35.5918 119.036 35.1621C119.036 34.7129 119.134 34.127 119.329 33.4043C119.524 32.6816 119.876 31.9004 120.384 31.0605C120.911 30.2207 121.546 29.4492 122.288 28.7461C123.831 27.2617 125.501 26.3047 127.298 25.875C127.825 25.7578 128.304 25.6992 128.733 25.6992C129.183 25.6992 129.583 25.7285 129.935 25.7871C131.067 25.7871 131.829 26.5586 132.22 28.1016C132.474 29.0781 132.62 30.4453 132.659 32.2031C132.718 33.9414 132.767 35.2891 132.806 36.2461C132.864 37.1836 132.991 38.043 133.187 38.8242H131.458C131.38 38.2969 131.321 37.8281 131.282 37.418C131.243 37.0078 131.204 36.627 131.165 36.2754C131.067 35.4551 130.95 34.7422 130.813 34.1367ZM130.696 29.5957C130.696 28.4629 130.14 27.8965 129.026 27.8965C128.89 27.877 128.753 27.8672 128.616 27.8672C127.19 27.8672 125.687 28.5508 124.104 29.918C123.362 30.543 122.728 31.2461 122.2 32.0273C121.419 33.1406 121.028 34.1367 121.028 35.0156C121.028 36.168 121.692 36.8516 123.021 37.0664C124.778 37.0273 126.458 36.2266 128.06 34.6641C128.743 33.9805 129.31 33.2383 129.759 32.4375C130.384 31.3633 130.696 30.416 130.696 29.5957Z" fill="#9152AE"/>
<path d="M69.3477 32.1592C69.3477 32.7842 69.4111 33.4189 69.5381 34.0635C69.6748 34.6982 69.8848 35.2793 70.168 35.8066C70.4609 36.334 70.8418 36.7686 71.3105 37.1104C71.7891 37.4521 72.3555 37.623 73.0098 37.623C73.5957 37.623 74.1133 37.4521 74.5625 37.1104C75.0117 36.7686 75.4072 36.3389 75.749 35.8213C76.1006 35.3037 76.4033 34.7227 76.6572 34.0781C76.9111 33.4238 77.1357 32.7842 77.3311 32.1592C77.1357 31.5439 76.9111 30.9141 76.6572 30.2695C76.4033 29.625 76.1006 29.0439 75.749 28.5264C75.4072 28.0088 75.0117 27.5791 74.5625 27.2373C74.1133 26.8955 73.5957 26.7246 73.0098 26.7246C72.3555 26.7246 71.7891 26.8955 71.3105 27.2373C70.8418 27.5791 70.4609 28.0088 70.168 28.5264C69.8848 29.0439 69.6748 29.625 69.5381 30.2695C69.4111 30.9141 69.3477 31.5439 69.3477 32.1592ZM67.3408 32.1592C67.3408 31.2412 67.4482 30.3525 67.6631 29.4932C67.8877 28.6338 68.2344 27.877 68.7031 27.2227C69.1719 26.5586 69.7627 26.0264 70.4756 25.626C71.1885 25.2256 72.0332 25.0254 73.0098 25.0254C74.2109 25.0254 75.2559 25.4062 76.1445 26.168C77.0332 26.9199 77.6777 27.9648 78.0781 29.3027L78.8984 25.3477H81.0518L79.1328 32.1592L81.0518 39H78.8984L78.0781 35.0449C77.6777 36.3828 77.0332 37.4326 76.1445 38.1943C75.2559 38.9561 74.2109 39.3369 73.0098 39.3369C72.0332 39.3369 71.1885 39.1367 70.4756 38.7363C69.7627 38.3359 69.1719 37.7988 68.7031 37.125C68.2344 36.4512 67.8877 35.6846 67.6631 34.8252C67.4482 33.9658 67.3408 33.0771 67.3408 32.1592Z" fill="#9152AE"/>
<defs>
<clipPath id="clip0_4_16">
<rect width="49" height="49" fill="white" transform="translate(7 6)"/>
</clipPath>
<clipPath id="clip1_4_16">
<rect width="20.6551" height="20.6551" fill="white" transform="translate(12.9015 36.312)"/>
</clipPath>
</defs>
</svg>
